<svg width="156" height="84" viewBox="0 0 156 84" fill="none" xmlns="http://www.w3.org/2000/svg">
    <g filter="url(#filter0_d_75_1093)">
    <path d="M14.9773 56.0682V71H6.64205V36.0909H14.7045V49.625H14.9943C15.5852 48.0114 16.5511 46.75 17.892 45.8409C19.2443 44.9318 20.8977 44.4773 22.8523 44.4773C24.6932 44.4773 26.2955 44.8864 27.6591 45.7045C29.0227 46.5114 30.0795 47.6534 30.8295 49.1307C31.5909 50.608 31.9659 52.3352 31.9545 54.3125V71H23.6193V55.9489C23.6307 54.4943 23.267 53.358 22.5284 52.5398C21.7898 51.7216 20.75 51.3125 19.4091 51.3125C18.5341 51.3125 17.7614 51.5057 17.0909 51.892C16.4318 52.267 15.9148 52.8068 15.5398 53.5114C15.1761 54.2159 14.9886 55.0682 14.9773 56.0682ZM44.5384 71.4432C42.8679 71.4432 41.3849 71.1648 40.0895 70.608C38.8054 70.0398 37.7884 69.1875 37.0384 68.0511C36.2997 66.9034 35.9304 65.4659 35.9304 63.7386C35.9304 62.2841 36.1861 61.0568 36.6974 60.0568C37.2088 59.0568 37.9134 58.2443 38.8111 57.6193C39.7088 56.9943 40.7429 56.5227 41.9134 56.2045C43.0838 55.875 44.3338 55.6534 45.6634 55.5398C47.152 55.4034 48.3509 55.2614 49.2599 55.1136C50.169 54.9545 50.8281 54.733 51.2372 54.4489C51.6577 54.1534 51.8679 53.7386 51.8679 53.2045V53.1193C51.8679 52.2443 51.5668 51.5682 50.9645 51.0909C50.3622 50.6136 49.5497 50.375 48.527 50.375C47.4247 50.375 46.5384 50.6136 45.8679 51.0909C45.1974 51.5682 44.7713 52.2273 44.5895 53.0682L36.902 52.7955C37.1293 51.2045 37.7145 49.7841 38.6577 48.5341C39.6122 47.2727 40.919 46.2841 42.5781 45.5682C44.2486 44.8409 46.2543 44.4773 48.5952 44.4773C50.2656 44.4773 51.8054 44.6761 53.2145 45.0739C54.6236 45.4602 55.8509 46.0284 56.8963 46.7784C57.9418 47.517 58.7486 48.4261 59.3168 49.5057C59.8963 50.5852 60.1861 51.8182 60.1861 53.2045V71H52.3452V67.3523H52.1406C51.6747 68.2386 51.0781 68.9886 50.3509 69.6023C49.6349 70.2159 48.7884 70.6761 47.8111 70.983C46.8452 71.2898 45.7543 71.4432 44.5384 71.4432ZM47.1122 65.9886C48.0099 65.9886 48.8168 65.8068 49.5327 65.4432C50.2599 65.0795 50.8395 64.5795 51.2713 63.9432C51.7031 63.2955 51.919 62.5455 51.919 61.6932V59.2045C51.6804 59.3295 51.3906 59.4432 51.0497 59.5455C50.7202 59.6477 50.3565 59.7443 49.9588 59.8352C49.5611 59.9261 49.152 60.0057 48.7315 60.0739C48.3111 60.142 47.9077 60.2045 47.5213 60.2614C46.7372 60.3864 46.0668 60.5795 45.5099 60.8409C44.9645 61.1023 44.544 61.4432 44.2486 61.8636C43.9645 62.2727 43.8224 62.7614 43.8224 63.3295C43.8224 64.1932 44.1293 64.8523 44.7429 65.3068C45.3679 65.7614 46.1577 65.9886 47.1122 65.9886ZM65.2827 71V36.0909H73.6179V49.3011H73.7884C74.1293 48.5057 74.6122 47.7386 75.2372 47C75.8736 46.2614 76.6804 45.6591 77.6577 45.1932C78.6463 44.7159 79.8281 44.4773 81.2031 44.4773C83.0213 44.4773 84.7202 44.9545 86.2997 45.9091C87.8906 46.8636 89.1747 48.3352 90.152 50.3239C91.1293 52.3125 91.6179 54.8466 91.6179 57.9261C91.6179 60.892 91.1463 63.375 90.2031 65.375C89.2713 67.375 88.0099 68.875 86.419 69.875C84.8395 70.875 83.0838 71.375 81.152 71.375C79.8338 71.375 78.6918 71.1591 77.7259 70.7273C76.7599 70.2955 75.9474 69.7273 75.2884 69.0227C74.6406 68.3182 74.1406 67.5625 73.7884 66.7557H73.5327V71H65.2827ZM73.4474 57.9091C73.4474 59.3182 73.6349 60.5455 74.0099 61.5909C74.3963 62.6364 74.9474 63.4489 75.6634 64.0284C76.3906 64.5966 77.2599 64.8807 78.2713 64.8807C79.294 64.8807 80.1634 64.5966 80.8793 64.0284C81.5952 63.4489 82.1349 62.6364 82.4986 61.5909C82.8736 60.5455 83.0611 59.3182 83.0611 57.9091C83.0611 56.5 82.8736 55.2784 82.4986 54.2443C82.1349 53.2102 81.5952 52.4091 80.8793 51.8409C80.1747 51.2727 79.3054 50.9886 78.2713 50.9886C77.2486 50.9886 76.3793 51.267 75.6634 51.8239C74.9474 52.3807 74.3963 53.1761 74.0099 54.2102C73.6349 55.2443 73.4474 56.4773 73.4474 57.9091ZM95.9858 71V44.8182H104.321V71H95.9858ZM100.162 41.767C98.9915 41.767 97.9858 41.3807 97.1449 40.608C96.304 39.8239 95.8835 38.8807 95.8835 37.7784C95.8835 36.6875 96.304 35.7557 97.1449 34.983C97.9858 34.1989 98.9915 33.8068 100.162 33.8068C101.344 33.8068 102.349 34.1989 103.179 34.983C104.02 35.7557 104.44 36.6875 104.44 37.7784C104.44 38.8807 104.02 39.8239 103.179 40.608C102.349 41.3807 101.344 41.767 100.162 41.767ZM124.405 44.8182V50.9545H107.888V44.8182H124.405ZM111.348 38.5455H119.683V62.767C119.683 63.2784 119.763 63.6932 119.922 64.0114C120.092 64.3182 120.337 64.5398 120.655 64.6761C120.973 64.8011 121.354 64.8636 121.797 64.8636C122.115 64.8636 122.45 64.8352 122.803 64.7784C123.166 64.7102 123.439 64.6534 123.621 64.608L124.882 70.625C124.484 70.7386 123.922 70.8807 123.195 71.0511C122.479 71.2216 121.621 71.3295 120.621 71.375C118.666 71.4659 116.99 71.2386 115.592 70.6932C114.206 70.1364 113.143 69.2727 112.405 68.1023C111.678 66.9318 111.325 65.4602 111.348 63.6875V38.5455ZM151.188 52.8125L143.534 53.017C143.455 52.4716 143.239 51.9886 142.886 51.5682C142.534 51.1364 142.074 50.8011 141.506 50.5625C140.949 50.3125 140.301 50.1875 139.562 50.1875C138.597 50.1875 137.773 50.3807 137.091 50.767C136.42 51.1534 136.091 51.6761 136.102 52.3352C136.091 52.8466 136.295 53.2898 136.716 53.6648C137.148 54.0398 137.915 54.3409 139.017 54.5682L144.062 55.5227C146.676 56.0227 148.619 56.8523 149.892 58.0114C151.176 59.1705 151.824 60.7045 151.835 62.6136C151.824 64.4091 151.29 65.9716 150.233 67.3011C149.188 68.6307 147.756 69.6648 145.938 70.4034C144.119 71.1307 142.04 71.4943 139.699 71.4943C135.96 71.4943 133.011 70.7273 130.852 69.1932C128.705 67.6477 127.477 65.5795 127.17 62.9886L135.403 62.7841C135.585 63.7386 136.057 64.4659 136.818 64.9659C137.58 65.4659 138.551 65.7159 139.733 65.7159C140.801 65.7159 141.67 65.517 142.341 65.1193C143.011 64.7216 143.352 64.1932 143.364 63.5341C143.352 62.9432 143.091 62.4716 142.58 62.1193C142.068 61.7557 141.267 61.4716 140.176 61.267L135.608 60.3977C132.983 59.9205 131.028 59.0398 129.744 57.7557C128.46 56.4602 127.824 54.8125 127.835 52.8125C127.824 51.0625 128.29 49.5682 129.233 48.3295C130.176 47.0795 131.517 46.125 133.256 45.4659C134.994 44.8068 137.045 44.4773 139.409 44.4773C142.955 44.4773 145.75 45.2216 147.795 46.7102C149.841 48.1875 150.972 50.2216 151.188 52.8125Z" fill="white"/>
    <rect x="4.5" y="0.5" width="15" height="15" rx="3.5" fill="#18181B" stroke="#27272A"/>
    <rect x="24.5" y="0.5" width="15" height="15" rx="3.5" fill="#4C1D95" stroke="#6D28D9"/>
    <rect x="44.5" y="0.5" width="15" height="15" rx="3.5" fill="#5B21B6" stroke="#7C3AED"/>
    <rect x="64.5" y="0.5" width="15" height="15" rx="3.5" fill="#6D28D9" stroke="#8B5CF6"/>
    <rect x="84.5" y="0.5" width="15" height="15" rx="3.5" fill="#7C3AED" stroke="#A78BFA"/>
    <rect x="104.5" y="0.5" width="15" height="15" rx="3.5" fill="#8B5CF6" stroke="#C4B5FD"/>
    </g>
    <defs>
    <filter id="filter0_d_75_1093" x="0" y="0" width="155.835" height="79.5114" filterUnits="userSpaceOnUse" color-interpolation-filters="sRGB">
    <feFlood flood-opacity="0" result="BackgroundImageFix"/>
    <feColorMatrix in="SourceAlpha" type="matrix" values="0 0 0 0 0 0 0 0 0 0 0 0 0 0 0 0 0 0 127 0" result="hardAlpha"/>
    <feOffset dy="4"/>
    <feGaussianBlur stdDeviation="2"/>
    <feComposite in2="hardAlpha" operator="out"/>
    <feColorMatrix type="matrix" values="0 0 0 0 0 0 0 0 0 0 0 0 0 0 0 0 0 0 0.25 0"/>
    <feBlend mode="normal" in2="BackgroundImageFix" result="effect1_dropShadow_75_1093"/>
    <feBlend mode="normal" in="SourceGraphic" in2="effect1_dropShadow_75_1093" result="shape"/>
    </filter>
    </defs>
    </svg>